<?xml version="1.0" standalone="no"?>
<!DOCTYPE svg PUBLIC "-//W3C//DTD SVG 20010904//EN"
 "http://www.w3.org/TR/2001/REC-SVG-20010904/DTD/svg10.dtd">
<svg version="1.0" xmlns="http://www.w3.org/2000/svg"
 width="550.000000pt" height="550.000000pt" viewBox="0 0 550.000000 550.000000"
 preserveAspectRatio="xMidYMid meet">

<g transform="translate(0.000000,550.000000) scale(0.100000,-0.100000)"
fill="#000000" stroke="none">
<path d="M0 2750 l0 -2750 2750 0 2750 0 0 2750 0 2750 -2750 0 -2750 0 0
-2750z m582 364 c-22 -15 -22 -18 -22 -274 0 -222 2 -261 16 -274 13 -14 64
-16 403 -16 288 0 390 3 399 12 16 16 17 544 2 551 -6 3 -5 4 2 3 10 -2 14
-64 16 -277 2 -249 1 -275 -15 -286 -12 -9 -64 -13 -176 -13 l-159 0 4 -55 c3
-30 1 -52 -4 -49 -4 3 -8 27 -8 55 l0 49 -65 0 -65 0 0 -50 c0 -27 -3 -50 -7
-50 -5 0 -6 22 -5 50 l4 50 -160 0 c-133 0 -163 3 -176 16 -24 23 -24 535 0
558 8 9 21 16 27 16 6 0 1 -7 -11 -16z m1591 -9 c75 -19 115 -50 138 -103 68
-157 -49 -312 -235 -312 -73 0 -86 11 -16 14 79 4 124 77 123 197 -1 80 -25
134 -72 166 -37 25 -99 31 -119 11 -18 -18 -17 -637 1 -662 7 -9 32 -20 55
-23 23 -3 39 -9 36 -14 -8 -13 -324 -12 -324 1 0 6 11 10 24 10 55 0 56 4 56
352 0 352 -1 356 -59 360 -28 2 148 13 264 16 39 1 97 -5 128 -13z m-1195
-383 l337 3 0 172 c0 95 3 169 8 164 4 -4 6 -84 5 -177 l-3 -169 -350 0 -350
0 -3 165 c-1 90 1 171 5 180 5 8 9 -65 11 -163 l2 -177 338 2z m1799 198 c54
-32 57 -48 63 -257 3 -133 9 -196 17 -204 7 -7 32 -15 55 -19 l43 -6 -74 -36
c-41 -19 -83 -33 -93 -30 -14 3 -41 33 -63 69 -1 2 -32 -13 -69 -33 -76 -41
-139 -48 -181 -20 -51 33 -56 103 -11 145 13 12 67 37 121 57 151 54 138 38
133 164 -5 121 -20 160 -63 160 -36 0 -60 -29 -84 -103 -25 -75 -56 -98 -104
-76 -54 24 -43 89 23 134 101 70 224 94 287 55z m473 0 c0 -5 -9 -10 -19 -10
-42 0 -51 -25 -51 -136 l0 -104 140 0 140 0 0 93 c0 119 -5 137 -41 144 -65
13 -21 23 101 23 123 0 166 -10 101 -23 -40 -8 -43 -27 -39 -285 3 -228 4
-232 56 -232 13 0 20 -4 17 -10 -4 -6 -60 -10 -135 -10 -75 0 -131 4 -135 10
-3 6 5 10 19 10 44 0 56 32 56 147 l0 103 -140 0 -140 0 0 -109 c0 -116 9
-141 51 -141 10 0 19 -4 19 -10 0 -6 -52 -10 -135 -10 -135 0 -164 7 -103 25
45 14 50 47 46 286 -3 210 -8 229 -54 229 -13 0 -24 5 -24 10 0 6 52 10 135
10 83 0 135 -4 135 -10z m710 0 c0 -5 -8 -10 -18 -10 -39 0 -42 -17 -42 -212
0 -137 4 -197 14 -221 40 -96 152 -100 239 -10 l27 30 -2 199 c-3 196 -3 199
-25 209 -44 19 -22 25 92 25 108 0 146 -10 91 -24 -13 -3 -26 -16 -30 -28 -8
-30 -8 -407 0 -447 5 -22 14 -33 30 -37 50 -13 21 -24 -60 -24 -90 0 -96 3
-96 58 l0 25 -22 -21 c-13 -11 -46 -32 -74 -46 -108 -54 -236 -25 -281 64 -22
41 -23 57 -23 237 0 180 -1 194 -20 213 -11 11 -20 22 -20 25 0 3 50 5 110 5
67 0 110 -4 110 -10z m745 0 c4 -6 -6 -10 -24 -10 -20 0 -34 -7 -41 -19 -6
-12 -10 -107 -10 -240 0 -250 0 -251 76 -251 82 0 156 46 195 123 31 59 40 46
33 -45 -3 -46 -7 -89 -10 -95 -4 -16 -484 -19 -484 -3 0 6 8 10 19 10 40 0 46
25 50 208 1 96 0 204 -4 239 -6 60 -8 64 -36 70 -16 3 -29 9 -29 14 0 13 257
11 265 -1z m-3707 -287 c-2 -10 -10 -18 -18 -18 -8 0 -16 8 -18 18 -2 12 3 17
18 17 15 0 20 -5 18 -17z m219 -255 c-2 -13 -4 -3 -4 22 0 25 2 35 4 23 2 -13
2 -33 0 -45z m-475 18 c2 -19 0 -32 -4 -30 -8 5 -12 64 -4 64 2 0 6 -15 8 -34z"/>
<path d="M2645 2579 c-80 -32 -104 -77 -69 -127 18 -27 55 -28 104 -4 34 17
35 18 38 85 3 76 3 76 -73 46z"/>
</g>
</svg>
