<?xml version="1.0" encoding="UTF-8"?>
<svg version="1.1" xmlns="http://www.w3.org/2000/svg" width="922" height="548">
<path d="M0 0 C304.26 0 608.52 0 922 0 C922 180.84 922 361.68 922 548 C617.74 548 313.48 548 0 548 C0 367.16 0 186.32 0 0 Z " fill="#333366" transform="translate(0,0)"/>
<path d="M0 0 C7.30856179 -0.48553382 13.20968501 2.01323636 18.80078125 6.6953125 C27.79561038 16.27727147 29.90951556 26.98566405 29.796875 39.7265625 C29.79878257 42.38316902 29.81979274 45.03871876 29.84375 47.6953125 C29.83698242 48.85482422 29.83021484 50.01433594 29.82324219 51.20898438 C30.04261078 54.16902343 30.59568483 55.69938533 32.046875 58.2265625 C32.12890625 60.41015625 32.12890625 60.41015625 31.859375 62.6640625 C31.74529297 63.77587891 31.74529297 63.77587891 31.62890625 64.91015625 C30.91919909 67.73469547 29.56829087 69.75187854 28.046875 72.2265625 C27.42403723 73.92089236 26.84145522 75.6304835 26.296875 77.3515625 C24.11886709 83.6048274 20.74372697 88.77670654 17.046875 94.2265625 C26.75611834 98.41545194 36.62398084 101.96583398 46.625 105.38867188 C68.06236838 112.88466798 68.06236838 112.88466798 72.046875 119.2265625 C75.2138893 126.35535514 76.78283946 134.05919147 78.359375 141.6640625 C78.54298584 142.52837891 78.72659668 143.39269531 78.91577148 144.28320312 C79.07891846 145.10884766 79.24206543 145.93449219 79.41015625 146.78515625 C79.55751221 147.52048584 79.70486816 148.25581543 79.85668945 149.01342773 C80.046875 151.2265625 80.046875 151.2265625 79.046875 156.2265625 C70.136875 156.2265625 61.226875 156.2265625 52.046875 156.2265625 C51.386875 159.5265625 50.726875 162.8265625 50.046875 166.2265625 C49.08573914 169.31608582 49.08573914 169.31608582 47.046875 171.2265625 C43.50788165 171.95241592 40.02529245 171.85662992 36.42504883 171.79418945 C34.78579185 171.79528465 34.78579185 171.79528465 33.11341858 171.79640198 C29.49308016 171.79291228 25.87402053 171.75398327 22.25390625 171.71484375 C19.74713341 171.70552061 17.24035148 171.69840215 14.73356628 171.69340515 C8.8048254 171.67625062 2.87649637 171.63682531 -3.05203277 171.5866577 C-10.46364307 171.52530087 -17.87531017 171.49843618 -25.28710938 171.47070312 C-38.5093487 171.41704705 -51.73120773 171.33264497 -64.953125 171.2265625 C-68.15910693 165.79033227 -68.18344796 163.15365589 -68.953125 156.2265625 C-77.863125 156.2265625 -86.773125 156.2265625 -95.953125 156.2265625 C-96.95094869 151.23744403 -96.78986887 149.58707077 -95.44140625 144.89453125 C-95.09529297 143.68345703 -94.74917969 142.47238281 -94.39257812 141.22460938 C-94.02068359 139.96712891 -93.64878906 138.70964844 -93.265625 137.4140625 C-92.73678711 135.54524414 -92.73678711 135.54524414 -92.19726562 133.63867188 C-87.33408155 116.8798017 -87.33408155 116.8798017 -83.12231445 113.95532227 C-80.77488894 112.77355138 -78.41649625 111.82970298 -75.953125 110.9140625 C-75.05698486 110.55578369 -74.16084473 110.19750488 -73.23754883 109.82836914 C-71.25523421 109.04043383 -69.26767028 108.26561563 -67.27587891 107.50195312 C-63.61952218 106.09851392 -59.97920949 104.65769329 -56.33984375 103.2109375 C-49.55583558 100.51943452 -42.75841254 97.86386208 -35.953125 95.2265625 C-37.27241378 91.88288374 -38.68698494 88.67521765 -40.328125 85.4765625 C-42.35169777 81.47107875 -44.25562944 77.43815794 -46.0390625 73.3203125 C-46.62560527 71.97677863 -47.23333812 70.64218641 -47.8671875 69.3203125 C-49.68267431 65.45179856 -50.42673991 62.48909668 -49.953125 58.2265625 C-49.4271875 57.205625 -49.4271875 57.205625 -48.890625 56.1640625 C-47.22905163 52.73014419 -48.80290631 49.67721858 -49.953125 46.2265625 C-50.96948112 32.63071664 -48.31270687 21.23814966 -39.953125 10.2265625 C-36.33219819 6.53188972 -33.42418476 4.45096145 -28.265625 3.6640625 C-24.953125 4.2265625 -24.953125 4.2265625 -22.328125 5.8515625 C-20.05427603 7.53340472 -20.05427603 7.53340472 -17.640625 6.6640625 C-16.3103125 5.9525 -16.3103125 5.9525 -14.953125 5.2265625 C-9.87602613 2.57943967 -5.72465979 0.66406054 0 0 Z " fill="#F2F2F5" transform="translate(686.953125,173.7734375)"/>
<path d="M0 0 C54.80487805 0 54.80487805 0 65.47265625 10.44140625 C72.55385242 18.34839789 73.30393187 26.30514145 73.21875 36.484375 C72.67736836 45.18515135 69.22804334 52.18358457 62.8125 58.125 C52.23789878 66.75640527 40.08357122 67.29030004 27 67.125 C22.38 67.08375 17.76 67.0425 13 67 C13 81.85 13 96.7 13 112 C8.71 112 4.42 112 0 112 C0 75.04 0 38.08 0 0 Z " fill="#FCFCFD" transform="translate(175,207)"/>
<path d="M0 0 C39.93 0 79.86 0 121 0 C119.59001894 7.0499053 118.10677252 14.0158034 116.4375 21 C116.21642578 21.93972656 115.99535156 22.87945312 115.76757812 23.84765625 C115.55423828 24.74355469 115.34089844 25.63945312 115.12109375 26.5625 C114.9295874 27.36816406 114.73808105 28.17382812 114.54077148 29.00390625 C114 31 114 31 113 33 C78.02 33 43.04 33 7 33 C6.01 28.71 5.02 24.42 4 20 C2.84603146 15.90770881 2.84603146 15.90770881 1.6484375 11.828125 C0.75879436 7.94799466 0.43960731 3.95646582 0 0 Z " fill="#353567" transform="translate(618,305)"/>
<path d="M0 0 C5.60837445 2.80418722 11.38417105 2.75392153 17.5 1.875 C20.31894119 0.81836877 22.79138681 -0.4020266 25.37890625 -1.93359375 C28.97450972 -3.95322369 30.64616158 -4.35068106 34.7578125 -3.26391602 C36.05080954 -2.8133831 37.33967872 -2.35089189 38.625 -1.87890625 C39.32068085 -1.63292191 40.01636169 -1.38693756 40.73312378 -1.13349915 C42.99329475 -0.33024818 45.24696619 0.48945843 47.5 1.3125 C49.04571623 1.87293775 50.59145196 2.43332172 52.13720703 2.99365234 C55.19335034 4.10420851 58.24620463 5.2233487 61.29785156 6.34619141 C64.86582135 7.65375011 68.45400638 8.89051148 72.0546875 10.10546875 C73.82877867 10.73514048 75.60228227 11.36647193 77.375 12 C78.16261719 12.25064209 78.95023438 12.50128418 79.76171875 12.75952148 C83.05092653 13.98964074 84.94383042 14.96445964 86.8046875 18.01098633 C89.14918084 23.56353523 90.5332458 29.42321022 91.75 35.3125 C91.92273438 36.10076172 92.09546875 36.88902344 92.2734375 37.70117188 C92.93997429 40.8090319 93.5 43.68769085 93.5 46.875 C86.24 46.875 78.98 46.875 71.5 46.875 C72.82 39.945 74.14 33.015 75.5 25.875 C33.26 25.545 -8.98 25.215 -52.5 24.875 C-51.18 30.485 -49.86 36.095 -48.5 41.875 C-48.5 43.525 -48.5 45.175 -48.5 46.875 C-55.1 46.875 -61.7 46.875 -68.5 46.875 C-67.73697836 40.77082689 -66.76693609 35.51735048 -65.125 29.6875 C-64.91617188 28.90697266 -64.70734375 28.12644531 -64.4921875 27.32226562 C-64.28078125 26.56236328 -64.069375 25.80246094 -63.8515625 25.01953125 C-63.66416504 24.34253174 -63.47676758 23.66553223 -63.28369141 22.96801758 C-60.94673909 16.72668045 -60.94673909 16.72668045 -57.75991821 14.85063171 C-55.48177218 13.82055947 -53.18266195 12.91086006 -50.84375 12.02734375 C-49.98624146 11.68876846 -49.12873291 11.35019318 -48.24523926 11.00135803 C-45.50260884 9.92288062 -42.75168387 8.86763342 -40 7.8125 C-38.17910771 7.09978682 -36.35878811 6.38560864 -34.5390625 5.66992188 C-30.26803377 3.99458061 -25.98504032 2.35298035 -21.69677734 0.72235107 C-19.76877563 -0.02132663 -17.85386767 -0.79876684 -15.94140625 -1.58154297 C-14.98105469 -1.96584473 -14.02070312 -2.35014648 -13.03125 -2.74609375 C-12.25330078 -3.06892334 -11.47535156 -3.39175293 -10.67382812 -3.72436523 C-6.55723365 -4.48305027 -3.39182756 -2.08134873 0 0 Z " fill="#363668" transform="translate(666.5,277.125)"/>
<path d="M0 0 C0.90814453 -0.03738281 1.81628906 -0.07476562 2.75195312 -0.11328125 C9.52968624 -0.20061067 14.37414447 1.25591463 19.8125 5.375 C28.49363845 14.54825612 29.24919704 23.77699318 29.10546875 35.9375 C29.09986387 37.33853702 29.09559799 38.73957997 29.09260559 40.140625 C29.08122681 43.80349354 29.05182118 47.46599734 29.01849365 51.12872314 C28.98764116 54.87612985 28.97406804 58.62359627 28.95898438 62.37109375 C28.92694348 69.70589428 28.87583334 77.04039577 28.8125 84.375 C25.5125 84.375 22.2125 84.375 18.8125 84.375 C17.6547494 80.90174819 17.74383348 78.01432552 17.8125 74.375 C17.22984375 74.82230469 16.6471875 75.26960938 16.046875 75.73046875 C6.71285571 82.61357417 -2.21679887 87.36073086 -14.0703125 86.86328125 C-21.29976866 85.73084764 -27.66534868 82.16900638 -32.1875 76.375 C-35.11890872 69.16644687 -35.78043346 60.33938485 -33.3828125 52.8671875 C-32.17333696 50.74017879 -30.88826781 49.13246007 -29.1875 47.375 C-28.62546875 46.77429688 -28.0634375 46.17359375 -27.484375 45.5546875 C-16.74027689 35.78348016 1.73502562 32.16918897 15.8125 32.375 C14.77983271 22.59873974 14.77983271 22.59873974 9.8125 14.375 C4.76152507 10.76716077 -0.21187238 10.72970293 -6.1875 11.375 C-13.3962677 12.81899229 -19.74986915 15.90963701 -26.1875 19.375 C-28.6625 15.415 -28.6625 15.415 -31.1875 11.375 C-28.06428494 7.84607318 -24.97343446 6.0994593 -20.6875 4.1875 C-19.5634375 3.67832031 -18.439375 3.16914063 -17.28125 2.64453125 C-11.46779389 0.25895898 -6.22883287 0.09522886 0 0 Z " fill="#FAFAFB" transform="translate(299.1875,234.625)"/>
<path d="M0 0 C4.95236974 3.94774616 5.66359862 11.12736295 7 17 C7.18747675 18.85041991 7.33959939 20.70518558 7.4375 22.5625 C7.7227218 27.29564008 9.62764545 28.71639163 13 32 C13.09070295 36.80725658 11.55248897 40.39255605 9.28125 44.578125 C8.30089935 46.43122683 7.39806951 48.32552778 6.53125 50.234375 C1.9419934 60.14890104 -3.6290959 70.03783078 -14.0625 74.6875 C-20.6992861 76.78223561 -26.21856792 77.19101445 -32.5625 74.0625 C-42.27634956 67.98711325 -46.72145346 59.31435327 -51 49 C-51.74498555 47.28947397 -52.49432299 45.58082972 -53.25 43.875 C-53.54390625 43.19179687 -53.8378125 42.50859375 -54.140625 41.8046875 C-55.07356369 39.7346397 -55.07356369 39.7346397 -57 37 C-57.375 34.5 -57.375 34.5 -57 32 C-56.39671875 31.62230469 -55.7934375 31.24460938 -55.171875 30.85546875 C-51.94042275 28.09478562 -51.1644552 24.77979207 -49.875 20.8125 C-49.49794922 19.71711914 -49.49794922 19.71711914 -49.11328125 18.59960938 C-47.48418975 13.7848337 -46.17583757 8.94411702 -45 4 C-42.67244268 5.16377866 -40.3604735 6.34017367 -38.0625 7.5625 C-31.67358213 10.56137982 -24.3275311 11.17413634 -17.48046875 9.31640625 C-11.23825514 6.94731415 -5.61384499 3.58330531 0 0 Z " fill="#343467" transform="translate(700,201)"/>
<path d="M0 0 C4.29 0 8.58 0 13 0 C13.33 15.84 13.66 31.68 14 48 C17.63 45.36 21.26 42.72 25 40 C30.05876466 37.2884164 34.32650226 36.52718107 40 36.625 C40.67289062 36.61339844 41.34578125 36.60179687 42.0390625 36.58984375 C47.86634954 36.62359252 52.573818 38.0141251 57.109375 41.7265625 C57.65078125 42.35304687 58.1921875 42.97953125 58.75 43.625 C59.57757813 44.54152344 59.57757813 44.54152344 60.421875 45.4765625 C65.60013062 53.7566445 65.40390011 62.37657287 65.29296875 71.87890625 C65.28736236 73.30093434 65.2830972 74.72296828 65.28010559 76.14500427 C65.26873869 79.85882008 65.23934372 83.57227494 65.20599365 87.28594971 C65.17511511 91.08706787 65.16156255 94.88824526 65.14648438 98.68945312 C65.11446445 106.12648444 65.06176527 113.56314533 65 121 C60.71 121 56.42 121 52 121 C51.9906543 119.19402344 51.98130859 117.38804687 51.97167969 115.52734375 C51.93604633 109.5360939 51.88218169 103.54523608 51.81609726 97.55426025 C51.77671898 93.9246652 51.74448381 90.29530923 51.72900391 86.66552734 C51.71377283 83.15740773 51.67921567 79.64994583 51.63169098 76.14212036 C51.60980401 74.16377797 51.60753182 72.18524967 51.60565186 70.20678711 C51.4897206 63.03018056 50.96660147 58.06033911 47 52 C42.67348062 48.62320438 38.1397291 48.42669967 32.8125 48.5859375 C25.12583897 49.71758482 20.15664313 54.59181331 15 60 C14.34 60 13.68 60 13 60 C13 80.13 13 100.26 13 121 C8.71 121 4.42 121 0 121 C0 81.07 0 41.14 0 0 Z " fill="#FCFCFD" transform="translate(355,198)"/>
<path d="M0 0 C4.29 0 8.58 0 13 0 C13.01458252 1.74015381 13.02916504 3.48030762 13.04418945 5.27319336 C13.09604619 11.05283272 13.16138633 16.83223724 13.23571491 22.61162472 C13.28025108 26.1122344 13.31954269 29.61273219 13.34643555 33.11352539 C13.37766317 37.14758877 13.43244401 41.18104536 13.48828125 45.21484375 C13.49467117 46.45894516 13.5010611 47.70304657 13.50764465 48.98484802 C13.66555449 60.75432357 13.66555449 60.75432357 19.5 70.5 C23.88587324 73.13152394 27.98373555 73.62703306 33 73 C40.29650174 70.73216838 46.93143353 66.6160722 51 60 C51.4702131 57.17732649 51.4702131 57.17732649 51.43237305 54.03808594 C51.45216721 52.83714294 51.47196136 51.63619995 51.49235535 50.39886475 C51.50194023 48.46119232 51.50194023 48.46119232 51.51171875 46.484375 C51.52857008 45.14486039 51.54672094 43.80536154 51.56611633 42.46588135 C51.61357396 38.94784473 51.64341028 35.42987205 51.66955566 31.91162109 C51.69938289 28.31855645 51.7459057 24.72571203 51.79101562 21.1328125 C51.87700028 14.08865382 51.94282299 7.04445999 52 0 C56.29 0 60.58 0 65 0 C65 27.39 65 54.78 65 83 C61.37 83 57.74 83 54 83 C53.77213542 80.4609375 53.54427083 77.921875 53.31640625 75.3828125 C53.13010715 72.98889139 53.13010715 72.98889139 52 71 C51.52691406 71.51949219 51.05382812 72.03898437 50.56640625 72.57421875 C44.19769138 79.29054379 37.50129835 84.47542434 28.046875 85.23828125 C19.98054302 85.41986929 14.52117167 84.87830111 8.32421875 79.5625 C0.44984494 71.43411413 -0.58847683 60.99364546 -0.42292023 50.16962624 C-0.4122628 49.50134489 -0.40160538 48.83306355 -0.390625 48.14453125 C-0.3831448 46.74778563 -0.3774603 45.35102937 -0.37347412 43.95426941 C-0.3583572 40.31596807 -0.31920077 36.67832734 -0.2746582 33.0402832 C-0.23340007 29.31275361 -0.21539862 25.58511503 -0.1953125 21.85742188 C-0.15268854 14.57128159 -0.08245822 7.28581831 0 0 Z " fill="#FCFCFD" transform="translate(446,236)"/>
<path d="M0 0 C5.94 -0.061875 5.94 -0.061875 12 -0.125 C13.23234375 -0.14320801 14.4646875 -0.16141602 15.734375 -0.18017578 C24.98483315 -0.22660781 33.07830075 0.89490493 41 6 C45.33029257 10.44424763 47.28349687 14.99273835 47.375 21.1875 C47.21313719 27.85984493 45.90275502 33.89816222 41.234375 38.88671875 C36.8306883 42.46688136 32.5686199 44.1738271 27 45 C25.72125 45.20625 24.4425 45.4125 23.125 45.625 C15.43620847 46.1875945 7.70934678 46 0 46 C0 30.82 0 15.64 0 0 Z " fill="#363668" transform="translate(188,218)"/>
<path d="M0 0 C4.62 0 9.24 0 14 0 C14.33 36.63 14.66 73.26 15 111 C16.98 111.33 18.96 111.66 21 112 C21.33 115.3 21.66 118.6 22 122 C17.62916548 123.45694484 13.56381589 123.60424354 9 123 C3.83390516 120.08820109 2.2917197 116.96266611 0.60068321 111.57504463 C-0.4546161 107.0511246 -0.39112433 102.59742714 -0.34057617 97.97241211 C-0.34101425 96.90795868 -0.34145233 95.84350525 -0.34190369 94.74679565 C-0.33982719 91.25678648 -0.31654958 87.76726817 -0.29296875 84.27734375 C-0.28736876 81.84640261 -0.28310056 79.41545807 -0.28010559 76.98451233 C-0.26868866 70.60749858 -0.23924845 64.23069204 -0.20599365 57.85375977 C-0.17522483 51.33808189 -0.16158571 44.82237032 -0.14648438 38.30664062 C-0.11437585 25.53766973 -0.06321758 12.76885214 0 0 Z " fill="#F1F1F5" transform="translate(539,198)"/>
<path d="M0 0 C4.27992428 2.39172239 7.08128142 5.45355812 9.875 9.4375 C10.29007813 9.97632813 10.70515625 10.51515625 11.1328125 11.0703125 C15.52396462 17.91805321 14.19369403 26.6472015 13.875 34.4375 C11.99722204 31.62083306 11.26197308 29.70563641 10.375 26.5 C9.47793914 23.26765569 8.46678885 20.39465946 6.875 17.4375 C2.00962454 16.86618697 -1.12748634 18.8439499 -5.125 21.3125 C-12.08204735 25.51943248 -17.83230612 28.88779175 -26.125 27.4375 C-31.76030475 25.21837999 -36.87031173 22.78354661 -41.125 18.4375 C-41.785 18.4375 -42.445 18.4375 -43.125 18.4375 C-43.29515625 19.4996875 -43.4653125 20.561875 -43.640625 21.65625 C-44.91294608 29.20279914 -46.11158154 35.79460048 -50.125 42.4375 C-53.83523102 36.87215347 -53.82486268 30.97226435 -53.125 24.4375 C-50.99144223 16.03287758 -47.30596737 7.70082268 -40.125 2.4375 C-37.5 2.08203125 -37.5 2.08203125 -35.125 2.4375 C-33.79166667 3.77083333 -32.45833333 5.10416667 -31.125 6.4375 C-28.66827108 7.10435938 -28.66827108 7.10435938 -26.125 6.4375 C-24.44022656 5.12712066 -22.77691491 3.78906675 -21.125 2.4375 C-14.05061026 -1.58173102 -7.77140308 -3.40644044 0 0 Z " fill="#383869" transform="translate(696.125,181.5625)"/>
<path d="M0 0 C0.26303192 3.85285562 0.42172203 7.70339593 0.5625 11.5625 C0.63791016 12.64853516 0.71332031 13.73457031 0.79101562 14.85351562 C1.00873635 22.81241783 1.00873635 22.81241783 -1.92919922 26.27124023 C-4.21276418 28.06268558 -6.47643128 29.57116479 -9 31 C-10.60875 31.9590625 -10.60875 31.9590625 -12.25 32.9375 C-18.47077415 34.70005268 -25.80957076 35.57032475 -31.75390625 32.64453125 C-35.20813114 30.1154379 -37.53843115 27.33581812 -38.38671875 23.04296875 C-38.72594915 16.92512395 -36.20699274 13.52649058 -32.24609375 8.9921875 C-23.94496631 1.62944838 -10.71021867 -0.12310596 0 0 Z " fill="#353567" transform="translate(315,276)"/>
<path d="M0 0 C2.31 0 4.62 0 7 0 C7 1.32 7 2.64 7 4 C4.08482708 2.92598892 2.22189824 2.22189824 0 0 Z " fill="#E66567" transform="translate(915,0)"/>
</svg>
